<svg xmlns="http://www.w3.org/2000/svg" xmlns:xlink="http://www.w3.org/1999/xlink" x="0px" y="0px" width="16px" height="16px">
  <style>
    path {
      fill: #444;
    }
    @media (prefers-color-scheme: dark) {
      path {
        fill: #fff;
      }
    }
  </style>
  <path d="M8,0A6.957,6.957,0,0,0,1,7a6.827,6.827,0,0,0,3,5.7V15a.945.945,0,0,0,1,1H6V14.5a.5.5,0,0,1,1,0V16H9V14.5a.5.5,0,0,1,1,0V16h1a.945.945,0,0,0,1-1V12.7A7.1,7.1,0,0,0,15,7,6.957,6.957,0,0,0,8,0ZM5,10A2.05,2.05,0,0,1,3,8,2.05,2.05,0,0,1,5,6,2.05,2.05,0,0,1,7,8,2.05,2.05,0,0,1,5,10Zm6,0A2.05,2.05,0,0,1,9,8a2,2,0,0,1,4,0A2.05,2.05,0,0,1,11,10Z"></path>
</svg>